<svg xmlns="http://www.w3.org/2000/svg" width="56" height="56" viewBox="0 0 56 56" id="usa-flag-56" role="img" aria-labelledby="usa-flag-56"><g fill="none"><path stroke="currentColor" stroke-linecap="square" stroke-width="1.7" d="M31.983 19.954h15.386m-15.386 5.095h15.386M31.983 30.55h15.386M9.131 36.07H46.87M9.636 41.49h36.728c.603 0 1.091-.49 1.091-1.092V15.602c0-.603-.488-1.092-1.091-1.092H9.636c-.603 0-1.091.49-1.091 1.092v24.796c0 .603.488 1.092 1.091 1.092ZM31.57 14.52H9.636c-.602 0-1.091.488-1.091 1.091v14.94h23.024z"></path><path fill="currentColor" d="m15.953 24.597-1.013-.269-.555-.907a.13.13 0 0 0-.042-.044.13.13 0 0 0-.18.041l-.002.003-.56.907-1.012.264a.1.1 0 0 0-.051.029.137.137 0 0 0 0 .187l.667.826-.07 1.075a.133.133 0 0 0 .122.144.1.1 0 0 0 .055-.01l.97-.398.952.399a.13.13 0 0 0 .175-.064.14.14 0 0 0 .012-.066l-.07-1.075.662-.821a.14.14 0 0 0 .033-.058.135.135 0 0 0-.093-.163M15.953 19.301l-1.013-.245-.555-.907a.128.128 0 0 0-.219 0l-.565.907-1.012.264a.135.135 0 0 0-.096.163q.008.03.026.053l.667.826-.051 1.076a.133.133 0 0 0 .122.143.1.1 0 0 0 .055-.009l.97-.398.953.388a.13.13 0 0 0 .065 0 .133.133 0 0 0 .121-.143l-.07-1.076.663-.821a.14.14 0 0 0 .032-.058.135.135 0 0 0-.093-.163M21.751 24.597l-1.022-.269-.56-.907a.13.13 0 0 0-.042-.044.13.13 0 0 0-.18.041l-.002.003-.56.907-1.012.264a.1.1 0 0 0-.051.029.137.137 0 0 0 0 .187l.667.826-.07 1.075a.133.133 0 0 0 .122.144.1.1 0 0 0 .055-.01l.97-.398.966.399a.13.13 0 0 0 .175-.064.14.14 0 0 0 .012-.066l-.07-1.075.663-.821a.14.14 0 0 0 .032-.058.135.135 0 0 0-.093-.163M27.53 24.592l-1.03-.264-.56-.907a.13.13 0 0 0-.042-.044.13.13 0 0 0-.18.041l-.002.003-.537.907-1.012.264a.1.1 0 0 0-.051.029.137.137 0 0 0 0 .187l.667.826-.07 1.075a.14.14 0 0 0 0 .058.13.13 0 0 0 .168.077l.97-.399.961.394a.13.13 0 0 0 .175-.063.14.14 0 0 0 .012-.067l-.07-1.075.663-.821a.13.13 0 0 0 .032-.058.135.135 0 0 0-.093-.163M21.758 19.3l-1.022-.244-.56-.908a.128.128 0 0 0-.22 0l-.559.908-1.012.264a.134.134 0 0 0-.096.162q.006.03.026.054l.672.826-.07 1.075a.133.133 0 0 0 .121.143.1.1 0 0 0 .056-.008l.97-.399.976.389a.13.13 0 0 0 .065 0 .133.133 0 0 0 .121-.143l-.07-1.077.663-.82a.14.14 0 0 0 .032-.058.135.135 0 0 0-.093-.163M27.53 19.306l-1.012-.25-.56-.908a.13.13 0 0 0-.042-.043.13.13 0 0 0-.18.041l-.002.002-.536.908-1.013.264a.135.135 0 0 0-.096.163q.008.03.026.053l.668.826-.07 1.076a.14.14 0 0 0 0 .057.13.13 0 0 0 .168.077l.97-.399.961.394a.13.13 0 0 0 .065 0 .133.133 0 0 0 .122-.143l-.07-1.076.662-.822a.14.14 0 0 0 .033-.057.135.135 0 0 0-.094-.163"></path></g></svg>