<svg xmlns="http://www.w3.org/2000/svg" fill="none" viewBox="0 0 121 160" height="160" width="121">
<path fill="#E8D9C0" d="M0 12.1141C0 5.44531 6.09655 0.0391846 13.617 0.0391846H106.571C114.091 0.0391846 120.188 5.44531 120.188 12.1141V126.576C120.188 131.697 116.544 136.262 111.097 137.964L64.62 152.489C61.6908 153.405 58.4968 153.405 55.5676 152.489L9.09085 137.964C3.64359 136.262 0 131.697 0 126.576V12.1141Z"></path>
<mask height="110" width="143" y="77" x="-12" maskUnits="userSpaceOnUse" style="mask-type:alpha" id="mask0_15321_1272">
<path fill="#A7ADEC" d="M120.131 79.2154C116.132 94.7626 106.127 108.753 91.1257 117.414C61.5132 134.51 23.6473 124.364 6.54987 94.7501C3.30348 89.1272 1.03914 83.2069 -0.295808 77.1874C-14.0773 98.7437 -15.6533 127.052 -1.9772 150.739C17.5625 184.583 60.8379 196.179 94.6813 176.64C128.524 157.101 140.12 113.825 120.58 79.981C120.432 79.7245 120.282 79.4691 120.131 79.2154Z" clip-rule="evenodd" fill-rule="evenodd"></path>
</mask>
<g mask="url(#mask0_15321_1272)">
<path fill="#A7ADEC" d="M0 12.1141C0 5.44534 6.09655 0.0392151 13.617 0.0392151H106.571C114.091 0.0392151 120.188 5.44534 120.188 12.1141V126.576C120.188 131.698 116.544 136.262 111.097 137.964L64.62 152.489C61.6908 153.405 58.4968 153.405 55.5676 152.489L9.09085 137.964C3.64359 136.262 0 131.698 0 126.576V12.1141Z"></path>
</g>
<path fill="#2B385C" d="M12.1807 27.2654C13.0104 27.1319 13.7912 27.6964 13.9246 28.5262C14.779 33.8392 19.3875 37.8978 24.9411 37.8978C30.4948 37.8978 35.1034 33.8392 35.9578 28.5262C36.0912 27.6964 36.872 27.1319 37.7017 27.2654C38.5314 27.3988 39.0959 28.1796 38.9624 29.0094C37.8746 35.7741 32.0127 40.9412 24.9411 40.9412C17.8696 40.9412 12.0077 35.7741 10.9199 29.0094C10.7865 28.1796 11.3509 27.3988 12.1807 27.2654Z" clip-rule="evenodd" fill-rule="evenodd"></path>
<path fill="#A7ADEC" d="M33.0559 26.6371C31.7671 27.952 29.971 28.7679 27.9844 28.7679C24.0626 28.7679 20.8834 25.5886 20.8834 21.6667C20.8834 20.922 20.998 20.2041 21.2106 19.5297C18.6056 20.8805 16.8257 23.6018 16.8257 26.7389C16.8257 31.221 20.4591 34.8545 24.9411 34.8545C29.4231 34.8545 33.0566 31.221 33.0566 26.7389C33.0566 26.7049 33.0563 26.671 33.0559 26.6371Z" clip-rule="evenodd" fill-rule="evenodd"></path>
<path fill="#2B385C" d="M53.4114 29.3969C52.9549 29.3969 52.539 29.3411 52.1636 29.2295C51.7985 29.1179 51.4739 28.9759 51.1898 28.8035C50.9159 28.631 50.6826 28.4534 50.4899 28.2708C50.2971 28.0882 50.1551 27.9209 50.0638 27.7687C49.9319 27.5861 49.8457 27.4238 49.8051 27.2818C49.7645 27.1398 49.7747 27.0028 49.8355 26.8709C49.9065 26.7289 50.0334 26.5818 50.2159 26.4296C50.3985 26.2673 50.566 26.1862 50.7181 26.1862C50.8804 26.176 51.0326 26.2217 51.1746 26.3231C51.3268 26.4245 51.4739 26.5666 51.6159 26.7492C51.8593 27.0738 52.1332 27.3071 52.4376 27.4491C52.7419 27.581 53.0462 27.647 53.3506 27.647C53.7461 27.647 54.0911 27.5963 54.3852 27.4948C54.6794 27.3832 54.9077 27.2209 55.07 27.0079C55.2424 26.7948 55.3287 26.5209 55.3287 26.1862C55.3287 25.9123 55.2424 25.6891 55.07 25.5166C54.9077 25.334 54.6896 25.1819 54.4157 25.0601C54.1418 24.9283 53.8324 24.8116 53.4875 24.7101C53.1527 24.5986 52.8129 24.4768 52.468 24.3449C52.2245 24.2638 51.981 24.1674 51.7376 24.0558C51.4941 23.9341 51.2659 23.7971 51.0529 23.645C50.8499 23.4928 50.6673 23.3153 50.5051 23.1124C50.3529 22.8994 50.2312 22.6559 50.1398 22.382C50.0486 22.1081 50.003 21.7885 50.003 21.4233C50.003 20.8451 50.1449 20.3379 50.429 19.9016C50.713 19.4553 51.1086 19.1053 51.6159 18.8517C52.1231 18.5879 52.7013 18.4561 53.3506 18.4561C53.7665 18.4561 54.1367 18.4966 54.4613 18.5778C54.7961 18.6488 55.0801 18.7452 55.3134 18.8669C55.557 18.9785 55.7547 19.0952 55.9069 19.2169C56.0692 19.3285 56.1859 19.4249 56.2568 19.506C56.4902 19.7393 56.617 19.9372 56.6373 20.0995C56.6677 20.2516 56.5764 20.4596 56.3634 20.7234C56.1504 20.9973 55.9424 21.1494 55.7395 21.1799C55.5468 21.2001 55.3287 21.119 55.0852 20.9364C54.9229 20.7639 54.7606 20.627 54.5983 20.5255C54.436 20.4139 54.2534 20.3328 54.0505 20.2821C53.8577 20.2313 53.6194 20.206 53.3353 20.206C53.1324 20.206 52.9346 20.2364 52.7419 20.2973C52.5593 20.348 52.4021 20.4292 52.2702 20.5408C52.1383 20.6422 52.0318 20.769 51.9506 20.9212C51.8797 21.0733 51.8441 21.2458 51.8441 21.4385C51.8441 21.7023 51.9151 21.9204 52.0571 22.0929C52.2093 22.2552 52.4122 22.3921 52.6658 22.5037C52.9194 22.6052 53.2035 22.7015 53.5179 22.7928C53.8324 22.8841 54.1519 22.9805 54.4766 23.0819C54.8113 23.1935 55.141 23.3254 55.4656 23.4776C55.7902 23.6298 56.0794 23.8225 56.3329 24.0558C56.5866 24.279 56.7895 24.563 56.9416 24.908C57.0938 25.2427 57.1699 25.6536 57.1699 26.1405C57.1699 26.6984 57.0634 27.1854 56.8503 27.6013C56.6373 28.0172 56.3482 28.3571 55.983 28.6209C55.6178 28.8846 55.212 29.0774 54.7657 29.1991C54.3193 29.331 53.8679 29.3969 53.4114 29.3969Z"></path>
<path fill="#2B385C" d="M59.5103 29.2599C59.2161 29.2599 59.0031 29.2142 58.8712 29.1229C58.7394 29.0418 58.6531 28.9302 58.6126 28.7882C58.5821 28.6461 58.5669 28.494 58.5669 28.3317V19.5516C58.5669 19.3791 58.5821 19.2219 58.6126 19.0799C58.6531 18.9379 58.7343 18.8263 58.856 18.7451C58.9879 18.664 59.201 18.6234 59.4951 18.6234C59.7791 18.6234 59.9821 18.664 60.1038 18.7451C60.2356 18.8263 60.3168 18.9379 60.3472 19.0799C60.3878 19.2219 60.4081 19.3791 60.4081 19.5516V27.6165H65.0491C65.2013 27.6165 65.3382 27.6317 65.46 27.6621C65.5817 27.6824 65.678 27.7534 65.749 27.8751C65.8201 27.9867 65.8556 28.1693 65.8556 28.423C65.8556 28.6766 65.8201 28.8643 65.749 28.986C65.678 29.0976 65.5817 29.1686 65.46 29.199C65.3382 29.2396 65.2013 29.2599 65.0491 29.2599H59.5103Z"></path>
<path fill="#2B385C" d="M68.0848 29.2599C67.8008 29.2599 67.5928 29.2142 67.461 29.1229C67.3291 29.0418 67.2479 28.9302 67.2175 28.7882C67.187 28.6461 67.1719 28.4889 67.1719 28.3165V19.5364C67.1719 19.1915 67.2378 18.9531 67.3697 18.8212C67.5117 18.6893 67.7653 18.6234 68.1305 18.6234H74.0649C74.2373 18.6234 74.3895 18.6437 74.5214 18.6842C74.6634 18.7147 74.775 18.7958 74.8562 18.9277C74.9373 19.0495 74.9779 19.2574 74.9779 19.5516C74.9779 19.8357 74.9323 20.0436 74.8409 20.1755C74.7598 20.3074 74.6482 20.3885 74.5061 20.419C74.3743 20.4494 74.2222 20.4646 74.0497 20.4646H69.0131V23.021H72.4824C72.6548 23.021 72.8019 23.0413 72.9236 23.0819C73.0454 23.1123 73.1418 23.1833 73.2128 23.2949C73.2838 23.4065 73.3193 23.5942 73.3193 23.8579C73.3193 24.1116 73.2838 24.2992 73.2128 24.421C73.1418 24.5326 73.0403 24.6036 72.9085 24.634C72.7765 24.6543 72.6244 24.6644 72.452 24.6644H69.0131V27.4035H74.0649C74.2373 27.4035 74.3895 27.4238 74.5214 27.4643C74.6634 27.4948 74.775 27.5759 74.8562 27.7078C74.9373 27.8397 74.9779 28.0476 74.9779 28.3317C74.9779 28.6157 74.9323 28.8237 74.8409 28.9556C74.7598 29.0875 74.6482 29.1686 74.5061 29.199C74.3743 29.2396 74.2222 29.2599 74.0497 29.2599H68.0848Z"></path>
<path fill="#2B385C" d="M77.4761 29.2599C77.1924 29.2599 76.9845 29.2142 76.8524 29.1229C76.7204 29.0418 76.6393 28.9302 76.6092 28.7882C76.5785 28.6461 76.5635 28.4889 76.5635 28.3165V19.5364C76.5635 19.1915 76.6295 18.9531 76.7609 18.8212C76.9034 18.6893 77.1571 18.6234 77.5219 18.6234H83.4565C83.6291 18.6234 83.7808 18.6437 83.9129 18.6842C84.0547 18.7147 84.1665 18.7958 84.2476 18.9277C84.3286 19.0495 84.3692 19.2574 84.3692 19.5516C84.3692 19.8357 84.3241 20.0436 84.2325 20.1755C84.1515 20.3074 84.0397 20.3885 83.8978 20.419C83.7658 20.4494 83.6134 20.4646 83.4415 20.4646H78.4044V23.021H81.8738C82.0464 23.021 82.1935 23.0413 82.3151 23.0819C82.4367 23.1123 82.5335 23.1833 82.6041 23.2949C82.6753 23.4065 82.7106 23.5942 82.7106 23.8579C82.7106 24.1116 82.6753 24.2992 82.6041 24.421C82.5335 24.5326 82.4321 24.6036 82.3001 24.634C82.168 24.6543 82.0157 24.6644 81.8438 24.6644H78.4044V27.4035H83.4565C83.6291 27.4035 83.7808 27.4238 83.9129 27.4643C84.0547 27.4948 84.1665 27.5759 84.2476 27.7078C84.3286 27.8397 84.3692 28.0476 84.3692 28.3317C84.3692 28.6157 84.3241 28.8237 84.2325 28.9556C84.1515 29.0875 84.0397 29.1686 83.8978 29.199C83.7658 29.2396 83.6134 29.2599 83.4415 29.2599H77.4761Z"></path>
<path fill="#2B385C" d="M86.7764 29.2447C86.4927 29.2447 86.2848 29.2041 86.1527 29.1229C86.0207 29.0418 85.9396 28.9302 85.9095 28.7882C85.8788 28.636 85.8638 28.4788 85.8638 28.3165V19.5364C85.8638 19.3741 85.8788 19.227 85.9095 19.0951C85.9501 18.9531 86.0364 18.8415 86.1678 18.7603C86.2998 18.669 86.5077 18.6234 86.7921 18.6234H90.0177C90.4642 18.6234 90.9002 18.6995 91.3264 18.8516C91.7527 19.0038 92.1325 19.2321 92.4672 19.5364C92.8124 19.8407 93.0811 20.2161 93.2739 20.6624C93.4766 21.1088 93.5786 21.6312 93.5786 22.2298C93.5786 22.8181 93.4766 23.3355 93.2739 23.7819C93.0811 24.2181 92.8124 24.5884 92.4672 24.8927C92.1227 25.197 91.737 25.4253 91.3114 25.5774C90.895 25.7296 90.4589 25.8057 90.0026 25.8057H87.7047V28.3317C87.7047 28.494 87.6844 28.6461 87.6439 28.7882C87.6132 28.9302 87.5321 29.0418 87.4007 29.1229C87.2785 29.2041 87.0706 29.2447 86.7764 29.2447ZM87.7047 23.9492H90.0177C90.3321 23.9492 90.6165 23.8884 90.8701 23.7667C91.1336 23.6348 91.3467 23.442 91.5088 23.1884C91.671 22.9247 91.7527 22.595 91.7527 22.1993C91.7527 21.8443 91.6762 21.5399 91.5239 21.2863C91.382 21.0226 91.1793 20.8197 90.9152 20.6776C90.6616 20.5356 90.3576 20.4646 90.0026 20.4646H87.7047V23.9492Z"></path>
<path fill="#2B385C" d="M51.0073 42.0927C50.7435 42.0927 50.5456 42.047 50.4138 41.9557C50.2819 41.8746 50.1957 41.763 50.1551 41.6209C50.1145 41.4789 50.0942 41.3268 50.0942 41.1645V32.3692C50.0942 32.2069 50.1095 32.0598 50.1399 31.9279C50.1805 31.7859 50.2667 31.6743 50.3986 31.5931C50.5304 31.5018 50.7384 31.4562 51.0224 31.4562L53.8831 31.4714C54.6237 31.4714 55.3033 31.5982 55.9222 31.8518C56.5511 32.1055 57.0938 32.4656 57.5503 32.9322C58.0068 33.3988 58.3568 33.9568 58.6002 34.606C58.8538 35.2452 58.9806 35.9502 58.9806 36.7212C58.9806 37.5125 58.8538 38.2378 58.6002 38.8972C58.3466 39.5566 57.9916 40.1247 57.5351 40.6015C57.0786 41.0782 56.5359 41.4485 55.9069 41.7122C55.2881 41.9659 54.5983 42.0927 53.8375 42.0927H51.0073ZM51.9354 40.2515H53.8831C54.5324 40.2515 55.1005 40.1095 55.5874 39.8254C56.0743 39.5312 56.4497 39.1255 56.7134 38.6081C56.9873 38.0907 57.1243 37.4871 57.1243 36.7973C57.1243 36.0973 56.9873 35.4886 56.7134 34.9712C56.4497 34.4437 56.0693 34.038 55.5721 33.7539C55.0852 33.4597 54.5171 33.3127 53.8679 33.3127H51.9354V40.2515Z"></path>
<path fill="#2B385C" d="M65.2449 42.2296C64.5146 42.2296 63.8298 42.0927 63.1907 41.8188C62.5618 41.5348 62.0038 41.1493 61.5169 40.6623C61.03 40.1652 60.6496 39.5972 60.3757 38.9581C60.1017 38.3088 59.9648 37.6139 59.9648 36.8734C59.9648 36.1125 60.0967 35.4024 60.3604 34.743C60.6343 34.0735 61.0046 33.4902 61.4713 32.9931C61.948 32.4858 62.4958 32.0902 63.1146 31.8062C63.7334 31.5221 64.3979 31.3801 65.108 31.3801C65.8485 31.3801 66.5333 31.5221 67.1622 31.8062C67.8013 32.0801 68.3592 32.4656 68.836 32.9626C69.3128 33.4597 69.6881 34.038 69.962 34.6974C70.2359 35.3466 70.3729 36.0517 70.3729 36.8125C70.3729 37.5531 70.241 38.253 69.9772 38.9124C69.7135 39.5617 69.3432 40.1399 68.8664 40.6471C68.3896 41.1442 67.8419 41.5348 67.2231 41.8188C66.6144 42.0927 65.955 42.2296 65.2449 42.2296ZM65.1688 40.3732C65.6355 40.3732 66.0716 40.2819 66.4774 40.0993C66.8832 39.9167 67.2383 39.6631 67.5426 39.3384C67.8571 39.0138 68.1005 38.6385 68.273 38.2125C68.4455 37.7762 68.5317 37.3096 68.5317 36.8125C68.5317 36.3154 68.4404 35.8538 68.2578 35.4278C68.0853 34.9915 67.8419 34.6112 67.5274 34.2865C67.2231 33.9518 66.868 33.693 66.4623 33.5104C66.0666 33.3278 65.6355 33.2365 65.1688 33.2365C64.7123 33.2365 64.2812 33.3278 63.8755 33.5104C63.4697 33.693 63.1095 33.9518 62.7951 34.2865C62.4908 34.6112 62.2524 34.9915 62.0799 35.4278C61.9074 35.864 61.8212 36.3256 61.8212 36.8125C61.8212 37.2995 61.9074 37.761 62.0799 38.1972C62.2625 38.6334 62.5059 39.0138 62.8103 39.3384C63.1146 39.6631 63.4646 39.9167 63.8602 40.0993C64.266 40.2819 64.7022 40.3732 65.1688 40.3732Z"></path>
<path fill="#2B385C" d="M76.6654 42.1688C76.1683 42.1688 75.6662 42.0978 75.159 41.9557C74.6518 41.8036 74.1648 41.5804 73.6982 41.2862C73.2315 40.9819 72.8156 40.6116 72.4504 40.1754C72.0954 39.7291 71.8113 39.2168 71.5984 38.6385C71.3853 38.0502 71.2788 37.4009 71.2788 36.6908C71.2788 35.9908 71.3853 35.3619 71.5984 34.8039C71.8113 34.2358 72.0954 33.7387 72.4504 33.3127C72.8156 32.8866 73.2265 32.5315 73.683 32.2475C74.1497 31.9635 74.6366 31.7504 75.1438 31.6084C75.6611 31.4562 76.1734 31.3751 76.6804 31.3649C77.1982 31.3649 77.644 31.4207 78.0199 31.5323C78.3952 31.6439 78.6992 31.7656 78.9326 31.8975C79.166 32.0192 79.3235 32.1055 79.4046 32.1562C79.5667 32.2576 79.719 32.3743 79.8609 32.5062C80.0132 32.6279 80.0943 32.7801 80.1041 32.9627C80.1145 33.0844 80.0995 33.196 80.059 33.2974C80.0178 33.3887 79.9622 33.4851 79.8916 33.5866C79.7694 33.759 79.6478 33.8858 79.5262 33.967C79.4046 34.0481 79.2823 34.0887 79.1607 34.0887C79.0496 34.0887 78.943 34.0583 78.841 33.9974C78.7502 33.9365 78.6332 33.8605 78.4913 33.7692C78.4305 33.7286 78.3187 33.6677 78.1566 33.5866C78.0043 33.4953 77.7964 33.4141 77.5329 33.3431C77.2793 33.2721 76.97 33.2366 76.6046 33.2366C76.1683 33.2366 75.7423 33.3127 75.3264 33.4648C74.9105 33.617 74.5351 33.8452 74.2003 34.1496C73.8757 34.4438 73.617 34.8141 73.4243 35.2604C73.2316 35.6966 73.1352 36.1988 73.1352 36.7669C73.1352 37.3349 73.2316 37.8422 73.4243 38.2885C73.617 38.7247 73.8757 39.0951 74.2003 39.3994C74.5351 39.6936 74.9105 39.9168 75.3264 40.0689C75.7423 40.221 76.1683 40.2971 76.6046 40.2971C76.9498 40.2971 77.244 40.2667 77.4871 40.2058C77.7408 40.1348 77.9539 40.0537 78.1265 39.9624C78.3089 39.8609 78.4455 39.7849 78.5371 39.7342C78.6488 39.6631 78.7554 39.5972 78.8567 39.5363C78.9581 39.4754 79.0646 39.445 79.1764 39.445C79.298 39.445 79.4144 39.4856 79.5262 39.5667C79.6478 39.6479 79.7648 39.7798 79.8759 39.9624C79.9472 40.074 80.0027 40.1805 80.0433 40.2819C80.0838 40.3833 80.0995 40.4899 80.089 40.6015C80.0792 40.7841 79.9975 40.9413 79.8458 41.0732C79.7033 41.1949 79.5517 41.3015 79.3889 41.3928C79.3078 41.4435 79.1509 41.5348 78.9175 41.6667C78.6939 41.7884 78.3952 41.9 78.0199 42.0014C77.644 42.113 77.193 42.1688 76.6654 42.1688Z"></path>
<path fill="#2B385C" d="M89.4056 31.4562C89.5579 31.4562 89.69 31.4714 89.8011 31.5018C89.9234 31.5323 90.0195 31.6084 90.0907 31.7301C90.1613 31.8417 90.1973 32.0243 90.1973 32.2779C90.1973 32.5315 90.1613 32.7192 90.0907 32.8409C90.0195 32.9525 89.9234 33.0235 89.8011 33.0539C89.6795 33.0742 89.5429 33.0844 89.3906 33.0844H86.5906V41.1949C86.5906 41.3673 86.5703 41.5246 86.5298 41.6666C86.4997 41.7985 86.418 41.905 86.2866 41.9862C86.165 42.0673 85.9565 42.1079 85.6623 42.1079C85.3884 42.1079 85.1857 42.0623 85.0537 41.971C84.9223 41.8898 84.8412 41.7833 84.8105 41.6514C84.7797 41.5094 84.7647 41.3522 84.7647 41.1797V33.0844H81.9346C81.7928 33.0844 81.6607 33.0692 81.5391 33.0388C81.4169 33.0083 81.3156 32.9373 81.2345 32.8257C81.1639 32.7141 81.1279 32.5315 81.1279 32.2779C81.1279 32.0243 81.1639 31.8417 81.2345 31.7301C81.3057 31.6084 81.4018 31.5323 81.5234 31.5018C81.6555 31.4714 81.7928 31.4562 81.9346 31.4562H89.4056Z"></path>
<path fill="#2B385C" d="M95.3657 42.2296C94.6355 42.2296 93.9504 42.0927 93.3117 41.8188C92.6828 41.5348 92.1245 41.1493 91.6374 40.6623C91.1511 40.1652 90.7706 39.5972 90.4967 38.9581C90.2227 38.3088 90.0854 37.6139 90.0854 36.8734C90.0854 36.1125 90.2175 35.4024 90.481 34.743C90.7549 34.0735 91.1256 33.4902 91.5923 32.9931C92.0689 32.4858 92.6167 32.0902 93.2352 31.8062C93.8543 31.5221 94.5185 31.3801 95.2291 31.3801C95.9691 31.3801 96.6543 31.5221 97.2832 31.8062C97.9219 32.0801 98.4802 32.4656 98.9567 32.9626C99.4333 33.4597 99.8092 34.038 100.083 34.6974C100.356 35.3466 100.494 36.0517 100.494 36.8125C100.494 37.5531 100.362 38.253 100.098 38.9124C99.8341 39.5617 99.464 40.1399 98.9875 40.6471C98.5102 41.1442 97.9624 41.5348 97.344 41.8188C96.7353 42.0927 96.0757 42.2296 95.3657 42.2296ZM95.2899 40.3732C95.756 40.3732 96.1927 40.2819 96.598 40.0993C97.004 39.9167 97.359 39.6631 97.6636 39.3384C97.9781 39.0138 98.2213 38.6385 98.3939 38.2125C98.5665 37.7762 98.6528 37.3096 98.6528 36.8125C98.6528 36.3154 98.5612 35.8538 98.3788 35.4278C98.2062 34.9915 97.9624 34.6112 97.6479 34.2865C97.344 33.9518 96.989 33.693 96.583 33.5104C96.1875 33.3278 95.756 33.2365 95.2899 33.2365C94.8329 33.2365 94.4021 33.3278 93.9961 33.5104C93.5902 33.693 93.2306 33.9518 92.9162 34.2865C92.6115 34.6112 92.3729 34.9915 92.201 35.4278C92.0284 35.864 91.9421 36.3256 91.9421 36.8125C91.9421 37.2995 92.0284 37.761 92.201 38.1972C92.3834 38.6334 92.6265 39.0138 92.9312 39.3384C93.2352 39.6631 93.5856 39.9167 93.9811 40.0993C94.3871 40.2819 94.8231 40.3732 95.2899 40.3732Z"></path>
<path fill="#2B385C" d="M102.678 42.0927C102.394 42.0927 102.186 42.0522 102.054 41.971C101.932 41.8899 101.851 41.7783 101.81 41.6362C101.78 41.4841 101.765 41.3269 101.765 41.1646V32.3844C101.765 32.2221 101.785 32.0751 101.826 31.9432C101.867 31.8012 101.948 31.6896 102.069 31.6084C102.201 31.5171 102.409 31.4714 102.693 31.4714H105.949C106.416 31.4714 106.857 31.5476 107.273 31.6997C107.699 31.8417 108.08 32.0649 108.415 32.3693C108.749 32.6634 109.013 33.0388 109.206 33.4953C109.409 33.9417 109.51 34.4641 109.51 35.0626C109.51 35.4582 109.449 35.8539 109.328 36.2495C109.206 36.635 109.023 36.9952 108.78 37.3299C108.547 37.6546 108.247 37.9335 107.882 38.1668C107.517 38.4001 107.085 38.5523 106.589 38.6233H103.606V41.1797C103.606 41.3421 103.586 41.4942 103.545 41.6362C103.515 41.7783 103.434 41.8899 103.302 41.971C103.18 42.0522 102.972 42.0927 102.678 42.0927ZM109.16 41.8645C108.866 42.0674 108.622 42.1435 108.43 42.0927C108.247 42.042 108.065 41.8797 107.882 41.6058L105.326 37.7407L107.38 37.4668L109.404 40.5406C109.545 40.7435 109.632 40.916 109.663 41.058C109.693 41.2 109.667 41.3319 109.586 41.4536C109.505 41.5754 109.363 41.7123 109.16 41.8645ZM103.606 36.7973H106.177C106.36 36.7973 106.538 36.7669 106.71 36.706C106.893 36.635 107.055 36.5285 107.197 36.3865C107.339 36.2343 107.451 36.0517 107.532 35.8387C107.623 35.6155 107.669 35.3517 107.669 35.0474C107.669 34.6822 107.598 34.3728 107.456 34.1192C107.314 33.8554 107.111 33.6576 106.848 33.5257C106.594 33.3837 106.284 33.3127 105.919 33.3127H103.606V36.7973Z"></path>
<path fill="#2B385C" d="M28.6806 62.4452C28.4206 62.4452 28.2206 62.3752 28.0806 62.2352C27.9406 62.0952 27.8706 61.8952 27.8706 61.6352V56.2052C27.8706 55.9452 27.9406 55.7452 28.0806 55.6052C28.2206 55.4652 28.4206 55.3952 28.6806 55.3952H31.1006C31.6006 55.3952 32.0273 55.4685 32.3806 55.6152C32.734 55.7619 33.0006 55.9719 33.1806 56.2452C33.3673 56.5185 33.4606 56.8452 33.4606 57.2252C33.4606 57.6452 33.3406 58.0019 33.1006 58.2952C32.8606 58.5885 32.5306 58.7852 32.1106 58.8852V58.7252C32.5973 58.8119 32.974 59.0052 33.2406 59.3052C33.514 59.5985 33.6506 59.9819 33.6506 60.4552C33.6506 61.0819 33.434 61.5719 33.0006 61.9252C32.5673 62.2719 31.9706 62.4452 31.2106 62.4452H28.6806ZM29.3506 61.2952H31.0006C31.4006 61.2952 31.694 61.2185 31.8806 61.0652C32.0673 60.9052 32.1606 60.6719 32.1606 60.3652C32.1606 60.0585 32.0673 59.8285 31.8806 59.6752C31.694 59.5219 31.4006 59.4452 31.0006 59.4452H29.3506V61.2952ZM29.3506 58.2952H30.8306C31.2173 58.2952 31.504 58.2219 31.6906 58.0752C31.8773 57.9285 31.9706 57.7085 31.9706 57.4152C31.9706 57.1285 31.8773 56.9119 31.6906 56.7652C31.504 56.6185 31.2173 56.5452 30.8306 56.5452H29.3506V58.2952ZM37.3666 62.5552C36.7866 62.5552 36.2866 62.4519 35.8666 62.2452C35.4533 62.0319 35.1333 61.7352 34.9066 61.3552C34.6866 60.9685 34.5766 60.5152 34.5766 59.9952C34.5766 59.4885 34.6833 59.0452 34.8966 58.6652C35.11 58.2785 35.4066 57.9785 35.7866 57.7652C36.1733 57.5452 36.61 57.4352 37.0966 57.4352C37.45 57.4352 37.77 57.4952 38.0566 57.6152C38.3433 57.7285 38.59 57.8952 38.7966 58.1152C39.0033 58.3285 39.16 58.5919 39.2666 58.9052C39.3733 59.2119 39.4266 59.5552 39.4266 59.9352C39.4266 60.0619 39.3866 60.1585 39.3066 60.2252C39.2266 60.2852 39.11 60.3152 38.9566 60.3152H35.8166V59.5352H38.3366L38.1766 59.6752C38.1766 59.4019 38.1366 59.1752 38.0566 58.9952C37.9766 58.8085 37.86 58.6685 37.7066 58.5752C37.56 58.4819 37.3766 58.4352 37.1566 58.4352C36.91 58.4352 36.7 58.4919 36.5266 58.6052C36.3533 58.7185 36.22 58.8819 36.1266 59.0952C36.0333 59.3085 35.9866 59.5652 35.9866 59.8652V59.9452C35.9866 60.4519 36.1033 60.8252 36.3366 61.0652C36.5766 61.3052 36.93 61.4252 37.3966 61.4252C37.5566 61.4252 37.74 61.4052 37.9466 61.3652C38.1533 61.3252 38.3466 61.2619 38.5266 61.1752C38.68 61.1019 38.8166 61.0785 38.9366 61.1052C39.0566 61.1252 39.15 61.1785 39.2166 61.2652C39.2833 61.3519 39.32 61.4519 39.3266 61.5652C39.34 61.6785 39.3166 61.7919 39.2566 61.9052C39.1966 62.0119 39.0966 62.1019 38.9566 62.1752C38.73 62.3019 38.4733 62.3952 38.1866 62.4552C37.9066 62.5219 37.6333 62.5552 37.3666 62.5552ZM42.3078 62.5552C42.0145 62.5552 41.7111 62.5285 41.3978 62.4752C41.0911 62.4219 40.8111 62.3319 40.5578 62.2052C40.4245 62.1385 40.3278 62.0552 40.2678 61.9552C40.2145 61.8485 40.1911 61.7419 40.1978 61.6352C40.2045 61.5285 40.2378 61.4319 40.2978 61.3452C40.3645 61.2585 40.4478 61.2019 40.5478 61.1752C40.6545 61.1419 40.7711 61.1519 40.8978 61.2052C41.1711 61.3185 41.4211 61.3985 41.6478 61.4452C41.8745 61.4919 42.0978 61.5152 42.3178 61.5152C42.6045 61.5152 42.8111 61.4719 42.9378 61.3852C43.0711 61.2919 43.1378 61.1719 43.1378 61.0252C43.1378 60.8919 43.0945 60.7919 43.0078 60.7252C42.9211 60.6585 42.7945 60.6119 42.6278 60.5852L41.5778 60.3952C41.1645 60.3219 40.8445 60.1719 40.6178 59.9452C40.3978 59.7119 40.2878 59.4152 40.2878 59.0552C40.2878 58.7219 40.3811 58.4352 40.5678 58.1952C40.7545 57.9485 41.0111 57.7619 41.3378 57.6352C41.6711 57.5019 42.0478 57.4352 42.4678 57.4352C42.7678 57.4352 43.0445 57.4619 43.2978 57.5152C43.5511 57.5685 43.7945 57.6552 44.0278 57.7752C44.1478 57.8352 44.2311 57.9152 44.2778 58.0152C44.3311 58.1152 44.3478 58.2185 44.3278 58.3252C44.3145 58.4319 44.2745 58.5285 44.2078 58.6152C44.1411 58.7019 44.0545 58.7585 43.9478 58.7852C43.8478 58.8119 43.7311 58.7985 43.5978 58.7452C43.3845 58.6452 43.1878 58.5752 43.0078 58.5352C42.8278 58.4885 42.6545 58.4652 42.4878 58.4652C42.1878 58.4652 41.9711 58.5152 41.8378 58.6152C41.7045 58.7085 41.6378 58.8285 41.6378 58.9752C41.6378 59.0885 41.6745 59.1852 41.7478 59.2652C41.8278 59.3385 41.9478 59.3885 42.1078 59.4152L43.1578 59.6052C43.5911 59.6785 43.9211 59.8252 44.1478 60.0452C44.3745 60.2585 44.4878 60.5519 44.4878 60.9252C44.4878 61.4319 44.2878 61.8319 43.8878 62.1252C43.4945 62.4119 42.9678 62.5552 42.3078 62.5552ZM47.8337 62.5552C47.3737 62.5552 46.9871 62.4785 46.6737 62.3252C46.3671 62.1719 46.1371 61.9485 45.9837 61.6552C45.8371 61.3619 45.7637 60.9919 45.7637 60.5452V58.6652H45.3437C45.1571 58.6652 45.0104 58.6152 44.9037 58.5152C44.8037 58.4152 44.7537 58.2785 44.7537 58.1052C44.7537 57.9185 44.8037 57.7785 44.9037 57.6852C45.0104 57.5852 45.1571 57.5352 45.3437 57.5352H45.7637V56.7752C45.7637 56.5219 45.8304 56.3319 45.9637 56.2052C46.0971 56.0719 46.2837 56.0052 46.5237 56.0052C46.7704 56.0052 46.9571 56.0719 47.0837 56.2052C47.2104 56.3319 47.2737 56.5219 47.2737 56.7752V57.5352H48.2237C48.4104 57.5352 48.5537 57.5852 48.6537 57.6852C48.7537 57.7785 48.8037 57.9185 48.8037 58.1052C48.8037 58.2785 48.7537 58.4152 48.6537 58.5152C48.5537 58.6152 48.4104 58.6652 48.2237 58.6652H47.2737V60.4852C47.2737 60.7652 47.3371 60.9752 47.4637 61.1152C47.5971 61.2552 47.8071 61.3252 48.0937 61.3252C48.1937 61.3252 48.2871 61.3152 48.3737 61.2952C48.4604 61.2752 48.5404 61.2619 48.6137 61.2552C48.7071 61.2485 48.7837 61.2785 48.8437 61.3452C48.9037 61.4052 48.9337 61.5419 48.9337 61.7552C48.9337 61.9152 48.9071 62.0552 48.8537 62.1752C48.8004 62.2952 48.7071 62.3819 48.5737 62.4352C48.4871 62.4685 48.3671 62.4952 48.2137 62.5152C48.0671 62.5419 47.9404 62.5552 47.8337 62.5552ZM53.3555 62.5352C53.1288 62.5352 52.9555 62.4719 52.8355 62.3452C52.7155 62.2185 52.6555 62.0419 52.6555 61.8152V56.0252C52.6555 55.7985 52.7188 55.6219 52.8455 55.4952C52.9788 55.3685 53.1588 55.3052 53.3855 55.3052C53.5855 55.3052 53.7421 55.3452 53.8555 55.4252C53.9755 55.4985 54.0855 55.6285 54.1855 55.8152L56.4955 60.0352H56.1555L58.4655 55.8152C58.5655 55.6285 58.6721 55.4985 58.7855 55.4252C58.9055 55.3452 59.0621 55.3052 59.2555 55.3052C59.4821 55.3052 59.6555 55.3685 59.7755 55.4952C59.9021 55.6219 59.9655 55.7985 59.9655 56.0252V61.8152C59.9655 62.0419 59.9055 62.2185 59.7855 62.3452C59.6655 62.4719 59.4921 62.5352 59.2655 62.5352C59.0388 62.5352 58.8621 62.4719 58.7355 62.3452C58.6155 62.2185 58.5555 62.0419 58.5555 61.8152V57.7652H58.7755L56.9155 61.0952C56.8355 61.2219 56.7488 61.3185 56.6555 61.3852C56.5688 61.4452 56.4521 61.4752 56.3055 61.4752C56.1588 61.4752 56.0388 61.4419 55.9455 61.3752C55.8521 61.3085 55.7688 61.2152 55.6955 61.0952L53.8155 57.7552H54.0555V61.8152C54.0555 62.0419 53.9955 62.2185 53.8755 62.3452C53.7621 62.4719 53.5888 62.5352 53.3555 62.5352ZM63.0481 62.5552C62.6881 62.5552 62.3648 62.4852 62.0781 62.3452C61.7914 62.2052 61.5681 62.0152 61.4081 61.7752C61.2481 61.5352 61.1681 61.2652 61.1681 60.9652C61.1681 60.6052 61.2614 60.3219 61.4481 60.1152C61.6348 59.9019 61.9381 59.7519 62.3581 59.6652C62.7781 59.5719 63.3348 59.5252 64.0281 59.5252H64.5581V60.3052H64.0381C63.6981 60.3052 63.4214 60.3252 63.2081 60.3652C63.0014 60.3985 62.8514 60.4585 62.7581 60.5452C62.6714 60.6319 62.6281 60.7519 62.6281 60.9052C62.6281 61.0919 62.6914 61.2452 62.8181 61.3652C62.9514 61.4852 63.1414 61.5452 63.3881 61.5452C63.5814 61.5452 63.7514 61.5019 63.8981 61.4152C64.0514 61.3219 64.1714 61.1985 64.2581 61.0452C64.3448 60.8852 64.3881 60.7052 64.3881 60.5052V59.3552C64.3881 59.0619 64.3214 58.8552 64.1881 58.7352C64.0548 58.6085 63.8281 58.5452 63.5081 58.5452C63.3281 58.5452 63.1314 58.5685 62.9181 58.6152C62.7114 58.6552 62.4814 58.7252 62.2281 58.8252C62.0814 58.8919 61.9514 58.9085 61.8381 58.8752C61.7248 58.8352 61.6381 58.7685 61.5781 58.6752C61.5181 58.5752 61.4881 58.4685 61.4881 58.3552C61.4881 58.2352 61.5214 58.1219 61.5881 58.0152C61.6548 57.9019 61.7648 57.8185 61.9181 57.7652C62.2314 57.6385 62.5248 57.5519 62.7981 57.5052C63.0781 57.4585 63.3348 57.4352 63.5681 57.4352C64.0814 57.4352 64.5014 57.5119 64.8281 57.6652C65.1614 57.8119 65.4114 58.0419 65.5781 58.3552C65.7448 58.6619 65.8281 59.0585 65.8281 59.5452V61.7652C65.8281 62.0119 65.7681 62.2019 65.6481 62.3352C65.5281 62.4685 65.3548 62.5352 65.1281 62.5352C64.9014 62.5352 64.7248 62.4685 64.5981 62.3352C64.4781 62.2019 64.4181 62.0119 64.4181 61.7652V61.3952L64.4881 61.4552C64.4481 61.6819 64.3614 61.8785 64.2281 62.0452C64.1014 62.2052 63.9381 62.3319 63.7381 62.4252C63.5381 62.5119 63.3081 62.5552 63.0481 62.5552ZM69.4874 62.5552C69.0274 62.5552 68.6407 62.4785 68.3274 62.3252C68.0207 62.1719 67.7907 61.9485 67.6374 61.6552C67.4907 61.3619 67.4174 60.9919 67.4174 60.5452V58.6652H66.9974C66.8107 58.6652 66.6641 58.6152 66.5574 58.5152C66.4574 58.4152 66.4074 58.2785 66.4074 58.1052C66.4074 57.9185 66.4574 57.7785 66.5574 57.6852C66.6641 57.5852 66.8107 57.5352 66.9974 57.5352H67.4174V56.7752C67.4174 56.5219 67.4841 56.3319 67.6174 56.2052C67.7507 56.0719 67.9374 56.0052 68.1774 56.0052C68.4241 56.0052 68.6107 56.0719 68.7374 56.2052C68.8641 56.3319 68.9274 56.5219 68.9274 56.7752V57.5352H69.8774C70.0641 57.5352 70.2074 57.5852 70.3074 57.6852C70.4074 57.7785 70.4574 57.9185 70.4574 58.1052C70.4574 58.2785 70.4074 58.4152 70.3074 58.5152C70.2074 58.6152 70.0641 58.6652 69.8774 58.6652H68.9274V60.4852C68.9274 60.7652 68.9907 60.9752 69.1174 61.1152C69.2507 61.2552 69.4607 61.3252 69.7474 61.3252C69.8474 61.3252 69.9407 61.3152 70.0274 61.2952C70.1141 61.2752 70.1941 61.2619 70.2674 61.2552C70.3607 61.2485 70.4374 61.2785 70.4974 61.3452C70.5574 61.4052 70.5874 61.5419 70.5874 61.7552C70.5874 61.9152 70.5607 62.0552 70.5074 62.1752C70.4541 62.2952 70.3607 62.3819 70.2274 62.4352C70.1407 62.4685 70.0207 62.4952 69.8674 62.5152C69.7207 62.5419 69.5941 62.5552 69.4874 62.5552ZM73.2919 62.5552C72.8319 62.5552 72.4453 62.4785 72.1319 62.3252C71.8253 62.1719 71.5953 61.9485 71.4419 61.6552C71.2953 61.3619 71.2219 60.9919 71.2219 60.5452V58.6652H70.8019C70.6153 58.6652 70.4686 58.6152 70.3619 58.5152C70.2619 58.4152 70.2119 58.2785 70.2119 58.1052C70.2119 57.9185 70.2619 57.7785 70.3619 57.6852C70.4686 57.5852 70.6153 57.5352 70.8019 57.5352H71.2219V56.7752C71.2219 56.5219 71.2886 56.3319 71.4219 56.2052C71.5553 56.0719 71.7419 56.0052 71.9819 56.0052C72.2286 56.0052 72.4153 56.0719 72.5419 56.2052C72.6686 56.3319 72.7319 56.5219 72.7319 56.7752V57.5352H73.6819C73.8686 57.5352 74.0119 57.5852 74.1119 57.6852C74.2119 57.7785 74.2619 57.9185 74.2619 58.1052C74.2619 58.2785 74.2119 58.4152 74.1119 58.5152C74.0119 58.6152 73.8686 58.6652 73.6819 58.6652H72.7319V60.4852C72.7319 60.7652 72.7953 60.9752 72.9219 61.1152C73.0553 61.2552 73.2653 61.3252 73.5519 61.3252C73.6519 61.3252 73.7453 61.3152 73.8319 61.2952C73.9186 61.2752 73.9986 61.2619 74.0719 61.2552C74.1653 61.2485 74.2419 61.2785 74.3019 61.3452C74.3619 61.4052 74.3919 61.5419 74.3919 61.7552C74.3919 61.9152 74.3653 62.0552 74.3119 62.1752C74.2586 62.2952 74.1653 62.3819 74.0319 62.4352C73.9453 62.4685 73.8253 62.4952 73.6719 62.5152C73.5253 62.5419 73.3986 62.5552 73.2919 62.5552ZM75.8278 62.5352C75.5744 62.5352 75.3811 62.4685 75.2478 62.3352C75.1144 62.2019 75.0478 62.0119 75.0478 61.7652V58.2152C75.0478 57.9685 75.1111 57.7819 75.2378 57.6552C75.3711 57.5219 75.5544 57.4552 75.7878 57.4552C76.0278 57.4552 76.2111 57.5219 76.3378 57.6552C76.4644 57.7819 76.5278 57.9685 76.5278 58.2152V58.7352H76.4278C76.5078 58.3352 76.6844 58.0252 76.9578 57.8052C77.2311 57.5852 77.5844 57.4619 78.0178 57.4352C78.1844 57.4219 78.3111 57.4652 78.3978 57.5652C78.4911 57.6585 78.5411 57.8152 78.5478 58.0352C78.5611 58.2419 78.5178 58.4052 78.4178 58.5252C78.3244 58.6452 78.1644 58.7185 77.9378 58.7452L77.7078 58.7652C77.3278 58.7985 77.0444 58.9085 76.8578 59.0952C76.6778 59.2819 76.5878 59.5519 76.5878 59.9052V61.7652C76.5878 62.0119 76.5211 62.2019 76.3878 62.3352C76.2611 62.4685 76.0744 62.5352 75.8278 62.5352ZM81.7539 62.5552C81.1739 62.5552 80.6739 62.4519 80.2539 62.2452C79.8405 62.0319 79.5205 61.7352 79.2939 61.3552C79.0739 60.9685 78.9639 60.5152 78.9639 59.9952C78.9639 59.4885 79.0705 59.0452 79.2839 58.6652C79.4972 58.2785 79.7939 57.9785 80.1739 57.7652C80.5605 57.5452 80.9972 57.4352 81.4839 57.4352C81.8372 57.4352 82.1572 57.4952 82.4439 57.6152C82.7305 57.7285 82.9772 57.8952 83.1839 58.1152C83.3905 58.3285 83.5472 58.5919 83.6539 58.9052C83.7605 59.2119 83.8139 59.5552 83.8139 59.9352C83.8139 60.0619 83.7739 60.1585 83.6939 60.2252C83.6139 60.2852 83.4972 60.3152 83.3439 60.3152H80.2039V59.5352H82.7239L82.5639 59.6752C82.5639 59.4019 82.5239 59.1752 82.4439 58.9952C82.3639 58.8085 82.2472 58.6685 82.0939 58.5752C81.9472 58.4819 81.7639 58.4352 81.5439 58.4352C81.2972 58.4352 81.0872 58.4919 80.9139 58.6052C80.7405 58.7185 80.6072 58.8819 80.5139 59.0952C80.4205 59.3085 80.3739 59.5652 80.3739 59.8652V59.9452C80.3739 60.4519 80.4905 60.8252 80.7239 61.0652C80.9639 61.3052 81.3172 61.4252 81.7839 61.4252C81.9439 61.4252 82.1272 61.4052 82.3339 61.3652C82.5405 61.3252 82.7339 61.2619 82.9139 61.1752C83.0672 61.1019 83.2039 61.0785 83.3239 61.1052C83.4439 61.1252 83.5372 61.1785 83.6039 61.2652C83.6705 61.3519 83.7072 61.4519 83.7139 61.5652C83.7272 61.6785 83.7039 61.7919 83.6439 61.9052C83.5839 62.0119 83.4839 62.1019 83.3439 62.1752C83.1172 62.3019 82.8605 62.3952 82.5739 62.4552C82.2939 62.5219 82.0205 62.5552 81.7539 62.5552ZM86.695 62.5552C86.4017 62.5552 86.0984 62.5285 85.785 62.4752C85.4784 62.4219 85.1984 62.3319 84.945 62.2052C84.8117 62.1385 84.715 62.0552 84.655 61.9552C84.6017 61.8485 84.5784 61.7419 84.585 61.6352C84.5917 61.5285 84.625 61.4319 84.685 61.3452C84.7517 61.2585 84.835 61.2019 84.935 61.1752C85.0417 61.1419 85.1584 61.1519 85.285 61.2052C85.5584 61.3185 85.8084 61.3985 86.035 61.4452C86.2617 61.4919 86.485 61.5152 86.705 61.5152C86.9917 61.5152 87.1984 61.4719 87.325 61.3852C87.4584 61.2919 87.525 61.1719 87.525 61.0252C87.525 60.8919 87.4817 60.7919 87.395 60.7252C87.3084 60.6585 87.1817 60.6119 87.015 60.5852L85.965 60.3952C85.5517 60.3219 85.2317 60.1719 85.005 59.9452C84.785 59.7119 84.675 59.4152 84.675 59.0552C84.675 58.7219 84.7684 58.4352 84.955 58.1952C85.1417 57.9485 85.3984 57.7619 85.725 57.6352C86.0584 57.5019 86.435 57.4352 86.855 57.4352C87.155 57.4352 87.4317 57.4619 87.685 57.5152C87.9384 57.5685 88.1817 57.6552 88.415 57.7752C88.535 57.8352 88.6184 57.9152 88.665 58.0152C88.7184 58.1152 88.735 58.2185 88.715 58.3252C88.7017 58.4319 88.6617 58.5285 88.595 58.6152C88.5284 58.7019 88.4417 58.7585 88.335 58.7852C88.235 58.8119 88.1184 58.7985 87.985 58.7452C87.7717 58.6452 87.575 58.5752 87.395 58.5352C87.215 58.4885 87.0417 58.4652 86.875 58.4652C86.575 58.4652 86.3584 58.5152 86.225 58.6152C86.0917 58.7085 86.025 58.8285 86.025 58.9752C86.025 59.0885 86.0617 59.1852 86.135 59.2652C86.215 59.3385 86.335 59.3885 86.495 59.4152L87.545 59.6052C87.9784 59.6785 88.3084 59.8252 88.535 60.0452C88.7617 60.2585 88.875 60.5519 88.875 60.9252C88.875 61.4319 88.675 61.8319 88.275 62.1252C87.8817 62.4119 87.355 62.5552 86.695 62.5552ZM91.7398 62.5552C91.4465 62.5552 91.1431 62.5285 90.8298 62.4752C90.5231 62.4219 90.2431 62.3319 89.9898 62.2052C89.8565 62.1385 89.7598 62.0552 89.6998 61.9552C89.6465 61.8485 89.6231 61.7419 89.6298 61.6352C89.6365 61.5285 89.6698 61.4319 89.7298 61.3452C89.7965 61.2585 89.8798 61.2019 89.9798 61.1752C90.0865 61.1419 90.2031 61.1519 90.3298 61.2052C90.6031 61.3185 90.8531 61.3985 91.0798 61.4452C91.3065 61.4919 91.5298 61.5152 91.7498 61.5152C92.0365 61.5152 92.2431 61.4719 92.3698 61.3852C92.5031 61.2919 92.5698 61.1719 92.5698 61.0252C92.5698 60.8919 92.5265 60.7919 92.4398 60.7252C92.3531 60.6585 92.2265 60.6119 92.0598 60.5852L91.0098 60.3952C90.5965 60.3219 90.2765 60.1719 90.0498 59.9452C89.8298 59.7119 89.7198 59.4152 89.7198 59.0552C89.7198 58.7219 89.8131 58.4352 89.9998 58.1952C90.1865 57.9485 90.4431 57.7619 90.7698 57.6352C91.1031 57.5019 91.4798 57.4352 91.8998 57.4352C92.1998 57.4352 92.4765 57.4619 92.7298 57.5152C92.9831 57.5685 93.2265 57.6552 93.4598 57.7752C93.5798 57.8352 93.6631 57.9152 93.7098 58.0152C93.7631 58.1152 93.7798 58.2185 93.7598 58.3252C93.7465 58.4319 93.7065 58.5285 93.6398 58.6152C93.5731 58.7019 93.4865 58.7585 93.3798 58.7852C93.2798 58.8119 93.1631 58.7985 93.0298 58.7452C92.8165 58.6452 92.6198 58.5752 92.4398 58.5352C92.2598 58.4885 92.0865 58.4652 91.9198 58.4652C91.6198 58.4652 91.4031 58.5152 91.2698 58.6152C91.1365 58.7085 91.0698 58.8285 91.0698 58.9752C91.0698 59.0885 91.1065 59.1852 91.1798 59.2652C91.2598 59.3385 91.3798 59.3885 91.5398 59.4152L92.5898 59.6052C93.0231 59.6785 93.3531 59.8252 93.5798 60.0452C93.8065 60.2585 93.9198 60.5519 93.9198 60.9252C93.9198 61.4319 93.7198 61.8319 93.3198 62.1252C92.9265 62.4119 92.3998 62.5552 91.7398 62.5552ZM26.3806 74.5352C26.134 74.5352 25.944 74.4685 25.8106 74.3352C25.684 74.2019 25.6206 74.0119 25.6206 73.7652V70.6652H25.2606C25.074 70.6652 24.9273 70.6152 24.8206 70.5152C24.7206 70.4152 24.6706 70.2785 24.6706 70.1052C24.6706 69.9185 24.7206 69.7785 24.8206 69.6852C24.9273 69.5852 25.074 69.5352 25.2606 69.5352H26.0606L25.6206 69.9352V69.6252C25.6206 68.9119 25.7973 68.3785 26.1506 68.0252C26.5106 67.6719 27.0373 67.4585 27.7306 67.3852L28.0506 67.3552C28.224 67.3419 28.3606 67.3685 28.4606 67.4352C28.5673 67.5019 28.6373 67.5885 28.6706 67.6952C28.704 67.8019 28.7106 67.9119 28.6906 68.0252C28.6706 68.1319 28.624 68.2285 28.5506 68.3152C28.484 68.3952 28.3906 68.4385 28.2706 68.4452L28.1306 68.4552C27.7706 68.4819 27.514 68.5685 27.3606 68.7152C27.2073 68.8552 27.1306 69.0719 27.1306 69.3652V69.7052L26.9406 69.5352H27.8406C28.034 69.5352 28.1806 69.5852 28.2806 69.6852C28.3806 69.7785 28.4306 69.9185 28.4306 70.1052C28.4306 70.2785 28.3806 70.4152 28.2806 70.5152C28.1806 70.6152 28.034 70.6652 27.8406 70.6652H27.1306V73.7652C27.1306 74.2785 26.8806 74.5352 26.3806 74.5352ZM31.4247 74.5552C30.898 74.5552 30.438 74.4519 30.0447 74.2452C29.658 74.0385 29.358 73.7419 29.1447 73.3552C28.9314 72.9685 28.8247 72.5119 28.8247 71.9852C28.8247 71.5919 28.8847 71.2385 29.0047 70.9252C29.1247 70.6119 29.298 70.3452 29.5247 70.1252C29.758 69.8985 30.0347 69.7285 30.3547 69.6152C30.6747 69.4952 31.0314 69.4352 31.4247 69.4352C31.9514 69.4352 32.408 69.5385 32.7947 69.7452C33.188 69.9519 33.4914 70.2452 33.7047 70.6252C33.9247 71.0052 34.0347 71.4585 34.0347 71.9852C34.0347 72.3852 33.9714 72.7419 33.8447 73.0552C33.7247 73.3685 33.5514 73.6385 33.3247 73.8652C33.098 74.0919 32.8214 74.2652 32.4947 74.3852C32.1747 74.4985 31.818 74.5552 31.4247 74.5552ZM31.4247 73.4252C31.6447 73.4252 31.8347 73.3719 31.9947 73.2652C32.1547 73.1585 32.2814 73.0019 32.3747 72.7952C32.468 72.5819 32.5147 72.3119 32.5147 71.9852C32.5147 71.4985 32.4147 71.1419 32.2147 70.9152C32.0147 70.6819 31.7514 70.5652 31.4247 70.5652C31.2114 70.5652 31.0214 70.6152 30.8547 70.7152C30.6947 70.8152 30.568 70.9719 30.4747 71.1852C30.388 71.3919 30.3447 71.6585 30.3447 71.9852C30.3447 72.4719 30.4447 72.8352 30.6447 73.0752C30.8447 73.3085 31.1047 73.4252 31.4247 73.4252ZM35.8562 74.5352C35.6029 74.5352 35.4096 74.4685 35.2762 74.3352C35.1429 74.2019 35.0762 74.0119 35.0762 73.7652V70.2152C35.0762 69.9685 35.1396 69.7819 35.2662 69.6552C35.3996 69.5219 35.5829 69.4552 35.8162 69.4552C36.0562 69.4552 36.2396 69.5219 36.3662 69.6552C36.4929 69.7819 36.5562 69.9685 36.5562 70.2152V70.7352H36.4562C36.5362 70.3352 36.7129 70.0252 36.9862 69.8052C37.2596 69.5852 37.6129 69.4619 38.0462 69.4352C38.2129 69.4219 38.3396 69.4652 38.4262 69.5652C38.5196 69.6585 38.5696 69.8152 38.5762 70.0352C38.5896 70.2419 38.5462 70.4052 38.4462 70.5252C38.3529 70.6452 38.1929 70.7185 37.9662 70.7452L37.7362 70.7652C37.3562 70.7985 37.0729 70.9085 36.8862 71.0952C36.7062 71.2819 36.6162 71.5519 36.6162 71.9052V73.7652C36.6162 74.0119 36.5496 74.2019 36.4162 74.3352C36.2896 74.4685 36.1029 74.5352 35.8562 74.5352ZM43.0861 74.5352C42.8594 74.5352 42.6861 74.4719 42.5661 74.3452C42.4461 74.2185 42.3861 74.0419 42.3861 73.8152V68.0252C42.3861 67.7985 42.4494 67.6219 42.5761 67.4952C42.7094 67.3685 42.8894 67.3052 43.1161 67.3052C43.3161 67.3052 43.4728 67.3452 43.5861 67.4252C43.7061 67.4985 43.8161 67.6285 43.9161 67.8152L46.2261 72.0352H45.8861L48.1961 67.8152C48.2961 67.6285 48.4028 67.4985 48.5161 67.4252C48.6361 67.3452 48.7928 67.3052 48.9861 67.3052C49.2128 67.3052 49.3861 67.3685 49.5061 67.4952C49.6328 67.6219 49.6961 67.7985 49.6961 68.0252V73.8152C49.6961 74.0419 49.6361 74.2185 49.5161 74.3452C49.3961 74.4719 49.2228 74.5352 48.9961 74.5352C48.7694 74.5352 48.5928 74.4719 48.4661 74.3452C48.3461 74.2185 48.2861 74.0419 48.2861 73.8152V69.7652H48.5061L46.6461 73.0952C46.5661 73.2219 46.4794 73.3185 46.3861 73.3852C46.2994 73.4452 46.1828 73.4752 46.0361 73.4752C45.8894 73.4752 45.7694 73.4419 45.6761 73.3752C45.5828 73.3085 45.4994 73.2152 45.4261 73.0952L43.5461 69.7552H43.7861V73.8152C43.7861 74.0419 43.7261 74.2185 43.6061 74.3452C43.4928 74.4719 43.3194 74.5352 43.0861 74.5352ZM53.6687 74.5552C53.0887 74.5552 52.5887 74.4519 52.1687 74.2452C51.7554 74.0319 51.4354 73.7352 51.2087 73.3552C50.9887 72.9685 50.8787 72.5152 50.8787 71.9952C50.8787 71.4885 50.9854 71.0452 51.1987 70.6652C51.4121 70.2785 51.7087 69.9785 52.0887 69.7652C52.4754 69.5452 52.9121 69.4352 53.3987 69.4352C53.7521 69.4352 54.0721 69.4952 54.3587 69.6152C54.6454 69.7285 54.8921 69.8952 55.0987 70.1152C55.3054 70.3285 55.4621 70.5919 55.5687 70.9052C55.6754 71.2119 55.7287 71.5552 55.7287 71.9352C55.7287 72.0619 55.6887 72.1585 55.6087 72.2252C55.5287 72.2852 55.4121 72.3152 55.2587 72.3152H52.1187V71.5352H54.6387L54.4787 71.6752C54.4787 71.4019 54.4387 71.1752 54.3587 70.9952C54.2787 70.8085 54.1621 70.6685 54.0087 70.5752C53.8621 70.4819 53.6787 70.4352 53.4587 70.4352C53.2121 70.4352 53.0021 70.4919 52.8287 70.6052C52.6554 70.7185 52.5221 70.8819 52.4287 71.0952C52.3354 71.3085 52.2887 71.5652 52.2887 71.8652V71.9452C52.2887 72.4519 52.4054 72.8252 52.6387 73.0652C52.8787 73.3052 53.2321 73.4252 53.6987 73.4252C53.8587 73.4252 54.0421 73.4052 54.2487 73.3652C54.4554 73.3252 54.6487 73.2619 54.8287 73.1752C54.9821 73.1019 55.1187 73.0785 55.2387 73.1052C55.3587 73.1252 55.4521 73.1785 55.5187 73.2652C55.5854 73.3519 55.6221 73.4519 55.6287 73.5652C55.6421 73.6785 55.6187 73.7919 55.5587 73.9052C55.4987 74.0119 55.3987 74.1019 55.2587 74.1752C55.0321 74.3019 54.7754 74.3952 54.4887 74.4552C54.2087 74.5219 53.9354 74.5552 53.6687 74.5552ZM57.4899 74.5352C57.2432 74.5352 57.0532 74.4685 56.9199 74.3352C56.7932 74.2019 56.7299 74.0119 56.7299 73.7652V70.2152C56.7299 69.9685 56.7932 69.7819 56.9199 69.6552C57.0532 69.5219 57.2366 69.4552 57.4699 69.4552C57.7099 69.4552 57.8932 69.5219 58.0199 69.6552C58.1466 69.7819 58.2099 69.9685 58.2099 70.2152V70.7852L58.0999 70.4552C58.2532 70.1285 58.4799 69.8785 58.7799 69.7052C59.0866 69.5252 59.4332 69.4352 59.8199 69.4352C60.2132 69.4352 60.5366 69.5119 60.7899 69.6652C61.0432 69.8119 61.2332 70.0385 61.3599 70.3452C61.4866 70.6452 61.5499 71.0285 61.5499 71.4952V73.7652C61.5499 74.0119 61.4832 74.2019 61.3499 74.3352C61.2232 74.4685 61.0366 74.5352 60.7899 74.5352C60.5499 74.5352 60.3632 74.4685 60.2299 74.3352C60.1032 74.2019 60.0399 74.0119 60.0399 73.7652V71.5652C60.0399 71.2252 59.9766 70.9819 59.8499 70.8352C59.7299 70.6819 59.5432 70.6052 59.2899 70.6052C58.9699 70.6052 58.7132 70.7052 58.5199 70.9052C58.3332 71.1052 58.2399 71.3719 58.2399 71.7052V73.7652C58.2399 74.2785 57.9899 74.5352 57.4899 74.5352ZM65.1601 74.5552C64.6334 74.5552 64.1734 74.4519 63.7801 74.2452C63.3934 74.0385 63.0934 73.7419 62.8801 73.3552C62.6667 72.9685 62.5601 72.5119 62.5601 71.9852C62.5601 71.5919 62.6201 71.2385 62.7401 70.9252C62.8601 70.6119 63.0334 70.3452 63.2601 70.1252C63.4934 69.8985 63.7701 69.7285 64.0901 69.6152C64.4101 69.4952 64.7667 69.4352 65.1601 69.4352C65.6867 69.4352 66.1434 69.5385 66.5301 69.7452C66.9234 69.9519 67.2267 70.2452 67.4401 70.6252C67.6601 71.0052 67.7701 71.4585 67.7701 71.9852C67.7701 72.3852 67.7067 72.7419 67.5801 73.0552C67.4601 73.3685 67.2867 73.6385 67.0601 73.8652C66.8334 74.0919 66.5567 74.2652 66.2301 74.3852C65.9101 74.4985 65.5534 74.5552 65.1601 74.5552ZM65.1601 73.4252C65.3801 73.4252 65.5701 73.3719 65.7301 73.2652C65.8901 73.1585 66.0167 73.0019 66.1101 72.7952C66.2034 72.5819 66.2501 72.3119 66.2501 71.9852C66.2501 71.4985 66.1501 71.1419 65.9501 70.9152C65.7501 70.6819 65.4867 70.5652 65.1601 70.5652C64.9467 70.5652 64.7567 70.6152 64.5901 70.7152C64.4301 70.8152 64.3034 70.9719 64.2101 71.1852C64.1234 71.3919 64.0801 71.6585 64.0801 71.9852C64.0801 72.4719 64.1801 72.8352 64.3801 73.0752C64.5801 73.3085 64.8401 73.4252 65.1601 73.4252ZM69.5716 76.3352C69.3249 76.3352 69.1349 76.2685 69.0016 76.1352C68.8749 76.0085 68.8116 75.8185 68.8116 75.5652V70.2152C68.8116 69.9685 68.8749 69.7819 69.0016 69.6552C69.1349 69.5219 69.3183 69.4552 69.5516 69.4552C69.7983 69.4552 69.9849 69.5219 70.1116 69.6552C70.2383 69.7819 70.3016 69.9685 70.3016 70.2152V70.8952L70.1916 70.5052C70.2916 70.1852 70.4916 69.9285 70.7916 69.7352C71.0983 69.5352 71.4483 69.4352 71.8416 69.4352C72.2683 69.4352 72.6416 69.5385 72.9616 69.7452C73.2883 69.9519 73.5416 70.2452 73.7216 70.6252C73.9016 71.0052 73.9916 71.4585 73.9916 71.9852C73.9916 72.5119 73.9016 72.9685 73.7216 73.3552C73.5416 73.7419 73.2916 74.0385 72.9716 74.2452C72.6516 74.4519 72.2749 74.5552 71.8416 74.5552C71.4549 74.5552 71.1116 74.4619 70.8116 74.2752C70.5116 74.0819 70.3083 73.8319 70.2016 73.5252H70.3216V75.5652C70.3216 75.8185 70.2549 76.0085 70.1216 76.1352C69.9949 76.2685 69.8116 76.3352 69.5716 76.3352ZM71.3916 73.4252C71.6049 73.4252 71.7916 73.3719 71.9516 73.2652C72.1183 73.1585 72.2449 73.0019 72.3316 72.7952C72.4249 72.5819 72.4716 72.3119 72.4716 71.9852C72.4716 71.4985 72.3716 71.1419 72.1716 70.9152C71.9716 70.6819 71.7116 70.5652 71.3916 70.5652C71.1783 70.5652 70.9883 70.6152 70.8216 70.7152C70.6616 70.8152 70.5349 70.9719 70.4416 71.1852C70.3483 71.3919 70.3016 71.6585 70.3016 71.9852C70.3016 72.4719 70.4016 72.8352 70.6016 73.0752C70.8016 73.3085 71.0649 73.4252 71.3916 73.4252ZM76.698 74.5552C76.338 74.5552 76.0147 74.4852 75.728 74.3452C75.4413 74.2052 75.218 74.0152 75.058 73.7752C74.898 73.5352 74.818 73.2652 74.818 72.9652C74.818 72.6052 74.9113 72.3219 75.098 72.1152C75.2847 71.9019 75.588 71.7519 76.008 71.6652C76.428 71.5719 76.9847 71.5252 77.678 71.5252H78.208V72.3052H77.688C77.348 72.3052 77.0713 72.3252 76.858 72.3652C76.6513 72.3985 76.5013 72.4585 76.408 72.5452C76.3213 72.6319 76.278 72.7519 76.278 72.9052C76.278 73.0919 76.3413 73.2452 76.468 73.3652C76.6013 73.4852 76.7913 73.5452 77.038 73.5452C77.2313 73.5452 77.4013 73.5019 77.548 73.4152C77.7013 73.3219 77.8213 73.1985 77.908 73.0452C77.9947 72.8852 78.038 72.7052 78.038 72.5052V71.3552C78.038 71.0619 77.9713 70.8552 77.838 70.7352C77.7047 70.6085 77.478 70.5452 77.158 70.5452C76.978 70.5452 76.7813 70.5685 76.568 70.6152C76.3613 70.6552 76.1313 70.7252 75.878 70.8252C75.7313 70.8919 75.6013 70.9085 75.488 70.8752C75.3747 70.8352 75.288 70.7685 75.228 70.6752C75.168 70.5752 75.138 70.4685 75.138 70.3552C75.138 70.2352 75.1713 70.1219 75.238 70.0152C75.3047 69.9019 75.4147 69.8185 75.568 69.7652C75.8813 69.6385 76.1747 69.5519 76.448 69.5052C76.728 69.4585 76.9847 69.4352 77.218 69.4352C77.7313 69.4352 78.1513 69.5119 78.478 69.6652C78.8113 69.8119 79.0613 70.0419 79.228 70.3552C79.3947 70.6619 79.478 71.0585 79.478 71.5452V73.7652C79.478 74.0119 79.418 74.2019 79.298 74.3352C79.178 74.4685 79.0047 74.5352 78.778 74.5352C78.5513 74.5352 78.3747 74.4685 78.248 74.3352C78.128 74.2019 78.068 74.0119 78.068 73.7652V73.3952L78.138 73.4552C78.098 73.6819 78.0113 73.8785 77.878 74.0452C77.7513 74.2052 77.588 74.3319 77.388 74.4252C77.188 74.5119 76.958 74.5552 76.698 74.5552ZM82.5373 74.5552C82.124 74.5552 81.7806 74.4785 81.5073 74.3252C81.234 74.1719 81.0306 73.9419 80.8973 73.6352C80.7706 73.3219 80.7073 72.9352 80.7073 72.4752V70.2152C80.7073 69.9619 80.7706 69.7719 80.8973 69.6452C81.0306 69.5185 81.2173 69.4552 81.4573 69.4552C81.6973 69.4552 81.884 69.5185 82.0173 69.6452C82.1506 69.7719 82.2173 69.9619 82.2173 70.2152V72.5152C82.2173 72.8085 82.2773 73.0285 82.3973 73.1752C82.5173 73.3152 82.7073 73.3852 82.9673 73.3852C83.254 73.3852 83.4873 73.2852 83.6673 73.0852C83.854 72.8785 83.9473 72.6085 83.9473 72.2752V70.2152C83.9473 69.9619 84.0106 69.7719 84.1373 69.6452C84.2706 69.5185 84.4573 69.4552 84.6973 69.4552C84.944 69.4552 85.1306 69.5185 85.2573 69.6452C85.3906 69.7719 85.4573 69.9619 85.4573 70.2152V73.7652C85.4573 74.2785 85.214 74.5352 84.7273 74.5352C84.4873 74.5352 84.304 74.4685 84.1773 74.3352C84.0506 74.2019 83.9873 74.0119 83.9873 73.7652V73.0952L84.1373 73.4852C83.9906 73.8252 83.7806 74.0885 83.5073 74.2752C83.234 74.4619 82.9106 74.5552 82.5373 74.5552ZM88.6286 74.5552C88.3353 74.5552 88.032 74.5285 87.7186 74.4752C87.412 74.4219 87.132 74.3319 86.8786 74.2052C86.7453 74.1385 86.6486 74.0552 86.5886 73.9552C86.5353 73.8485 86.512 73.7419 86.5186 73.6352C86.5253 73.5285 86.5586 73.4319 86.6186 73.3452C86.6853 73.2585 86.7686 73.2019 86.8686 73.1752C86.9753 73.1419 87.092 73.1519 87.2186 73.2052C87.492 73.3185 87.742 73.3985 87.9686 73.4452C88.1953 73.4919 88.4186 73.5152 88.6386 73.5152C88.9253 73.5152 89.132 73.4719 89.2586 73.3852C89.392 73.2919 89.4586 73.1719 89.4586 73.0252C89.4586 72.8919 89.4153 72.7919 89.3286 72.7252C89.242 72.6585 89.1153 72.6119 88.9486 72.5852L87.8986 72.3952C87.4853 72.3219 87.1653 72.1719 86.9386 71.9452C86.7186 71.7119 86.6086 71.4152 86.6086 71.0552C86.6086 70.7219 86.702 70.4352 86.8886 70.1952C87.0753 69.9485 87.332 69.7619 87.6586 69.6352C87.992 69.5019 88.3686 69.4352 88.7886 69.4352C89.0886 69.4352 89.3653 69.4619 89.6186 69.5152C89.872 69.5685 90.1153 69.6552 90.3486 69.7752C90.4686 69.8352 90.552 69.9152 90.5986 70.0152C90.652 70.1152 90.6686 70.2185 90.6486 70.3252C90.6353 70.4319 90.5953 70.5285 90.5286 70.6152C90.462 70.7019 90.3753 70.7585 90.2686 70.7852C90.1686 70.8119 90.052 70.7985 89.9186 70.7452C89.7053 70.6452 89.5086 70.5752 89.3286 70.5352C89.1486 70.4885 88.9753 70.4652 88.8086 70.4652C88.5086 70.4652 88.292 70.5152 88.1586 70.6152C88.0253 70.7085 87.9586 70.8285 87.9586 70.9752C87.9586 71.0885 87.9953 71.1852 88.0686 71.2652C88.1486 71.3385 88.2686 71.3885 88.4286 71.4152L89.4786 71.6052C89.912 71.6785 90.242 71.8252 90.4686 72.0452C90.6953 72.2585 90.8086 72.5519 90.8086 72.9252C90.8086 73.4319 90.6086 73.8319 90.2086 74.1252C89.8153 74.4119 89.2886 74.5552 88.6286 74.5552ZM94.3434 74.5552C93.7634 74.5552 93.2634 74.4519 92.8434 74.2452C92.4301 74.0319 92.1101 73.7352 91.8834 73.3552C91.6634 72.9685 91.5534 72.5152 91.5534 71.9952C91.5534 71.4885 91.6601 71.0452 91.8734 70.6652C92.0867 70.2785 92.3834 69.9785 92.7634 69.7652C93.1501 69.5452 93.5867 69.4352 94.0734 69.4352C94.4267 69.4352 94.7467 69.4952 95.0334 69.6152C95.3201 69.7285 95.5667 69.8952 95.7734 70.1152C95.9801 70.3285 96.1367 70.5919 96.2434 70.9052C96.3501 71.2119 96.4034 71.5552 96.4034 71.9352C96.4034 72.0619 96.3634 72.1585 96.2834 72.2252C96.2034 72.2852 96.0867 72.3152 95.9334 72.3152H92.7934V71.5352H95.3134L95.1534 71.6752C95.1534 71.4019 95.1134 71.1752 95.0334 70.9952C94.9534 70.8085 94.8367 70.6685 94.6834 70.5752C94.5367 70.4819 94.3534 70.4352 94.1334 70.4352C93.8867 70.4352 93.6767 70.4919 93.5034 70.6052C93.3301 70.7185 93.1967 70.8819 93.1034 71.0952C93.0101 71.3085 92.9634 71.5652 92.9634 71.8652V71.9452C92.9634 72.4519 93.0801 72.8252 93.3134 73.0652C93.5534 73.3052 93.9067 73.4252 94.3734 73.4252C94.5334 73.4252 94.7167 73.4052 94.9234 73.3652C95.1301 73.3252 95.3234 73.2619 95.5034 73.1752C95.6567 73.1019 95.7934 73.0785 95.9134 73.1052C96.0334 73.1252 96.1267 73.1785 96.1934 73.2652C96.2601 73.3519 96.2967 73.4519 96.3034 73.5652C96.3167 73.6785 96.2934 73.7919 96.2334 73.9052C96.1734 74.0119 96.0734 74.1019 95.9334 74.1752C95.7067 74.3019 95.4501 74.3952 95.1634 74.4552C94.8834 74.5219 94.6101 74.5552 94.3434 74.5552ZM49.8846 87.4452C49.638 87.4452 49.4546 87.3885 49.3346 87.2752C49.2213 87.1552 49.1646 86.9819 49.1646 86.7552C49.1646 86.6085 49.2013 86.4719 49.2746 86.3452C49.348 86.2185 49.448 86.0885 49.5746 85.9552L51.4546 83.9752C51.7346 83.6752 51.9346 83.4085 52.0546 83.1752C52.1813 82.9419 52.2446 82.7085 52.2446 82.4752C52.2446 82.1819 52.148 81.9585 51.9546 81.8052C51.768 81.6519 51.4946 81.5752 51.1346 81.5752C50.9413 81.5752 50.7413 81.6052 50.5346 81.6652C50.3346 81.7185 50.1246 81.8085 49.9046 81.9352C49.758 82.0152 49.6213 82.0452 49.4946 82.0252C49.3746 81.9985 49.2713 81.9419 49.1846 81.8552C49.098 81.7619 49.0413 81.6519 49.0146 81.5252C48.988 81.3985 49.0013 81.2719 49.0546 81.1452C49.108 81.0185 49.208 80.9119 49.3546 80.8252C49.648 80.6452 49.968 80.5119 50.3146 80.4252C50.6613 80.3319 51.0046 80.2852 51.3446 80.2852C51.8713 80.2852 52.3146 80.3652 52.6746 80.5252C53.0346 80.6785 53.308 80.9052 53.4946 81.2052C53.6813 81.5052 53.7746 81.8719 53.7746 82.3052C53.7746 82.5852 53.7313 82.8585 53.6446 83.1252C53.558 83.3919 53.4213 83.6619 53.2346 83.9352C53.0546 84.2019 52.8146 84.4885 52.5146 84.7952L50.7646 86.5752V86.1752H53.4746C53.688 86.1752 53.848 86.2285 53.9546 86.3352C54.068 86.4419 54.1246 86.5985 54.1246 86.8052C54.1246 87.0119 54.068 87.1719 53.9546 87.2852C53.848 87.3919 53.688 87.4452 53.4746 87.4452H49.8846ZM57.6236 87.5552C56.7703 87.5552 56.1169 87.2385 55.6636 86.6052C55.2169 85.9652 54.9936 85.0619 54.9936 83.8952C54.9936 83.1152 55.0936 82.4585 55.2936 81.9252C55.5003 81.3852 55.7969 80.9785 56.1836 80.7052C56.5769 80.4252 57.0569 80.2852 57.6236 80.2852C58.4836 80.2852 59.1369 80.5952 59.5836 81.2152C60.0303 81.8285 60.2536 82.7219 60.2536 83.8952C60.2536 84.6752 60.1503 85.3385 59.9436 85.8852C59.7436 86.4252 59.4503 86.8385 59.0636 87.1252C58.6769 87.4119 58.1969 87.5552 57.6236 87.5552ZM57.6236 86.2952C58.0103 86.2952 58.2969 86.1052 58.4836 85.7252C58.6703 85.3385 58.7636 84.7285 58.7636 83.8952C58.7636 83.0619 58.6703 82.4619 58.4836 82.0952C58.2969 81.7285 58.0103 81.5452 57.6236 81.5452C57.2369 81.5452 56.9503 81.7285 56.7636 82.0952C56.5769 82.4619 56.4836 83.0619 56.4836 83.8952C56.4836 84.7285 56.5769 85.3385 56.7636 85.7252C56.9503 86.1052 57.2369 86.2952 57.6236 86.2952ZM62.1226 87.4452C61.8759 87.4452 61.6926 87.3885 61.5726 87.2752C61.4593 87.1552 61.4026 86.9819 61.4026 86.7552C61.4026 86.6085 61.4393 86.4719 61.5126 86.3452C61.5859 86.2185 61.6859 86.0885 61.8126 85.9552L63.6926 83.9752C63.9726 83.6752 64.1726 83.4085 64.2926 83.1752C64.4193 82.9419 64.4826 82.7085 64.4826 82.4752C64.4826 82.1819 64.3859 81.9585 64.1926 81.8052C64.0059 81.6519 63.7326 81.5752 63.3726 81.5752C63.1793 81.5752 62.9793 81.6052 62.7726 81.6652C62.5726 81.7185 62.3626 81.8085 62.1426 81.9352C61.9959 82.0152 61.8593 82.0452 61.7326 82.0252C61.6126 81.9985 61.5093 81.9419 61.4226 81.8552C61.3359 81.7619 61.2793 81.6519 61.2526 81.5252C61.2259 81.3985 61.2393 81.2719 61.2926 81.1452C61.3459 81.0185 61.4459 80.9119 61.5926 80.8252C61.8859 80.6452 62.2059 80.5119 62.5526 80.4252C62.8993 80.3319 63.2426 80.2852 63.5826 80.2852C64.1093 80.2852 64.5526 80.3652 64.9126 80.5252C65.2726 80.6785 65.5459 80.9052 65.7326 81.2052C65.9193 81.5052 66.0126 81.8719 66.0126 82.3052C66.0126 82.5852 65.9693 82.8585 65.8826 83.1252C65.7959 83.3919 65.6593 83.6619 65.4726 83.9352C65.2926 84.2019 65.0526 84.4885 64.7526 84.7952L63.0026 86.5752V86.1752H65.7126C65.9259 86.1752 66.0859 86.2285 66.1926 86.3352C66.3059 86.4419 66.3626 86.5985 66.3626 86.8052C66.3626 87.0119 66.3059 87.1719 66.1926 87.2852C66.0859 87.3919 65.9259 87.4452 65.7126 87.4452H62.1226ZM69.8716 87.5552C69.5316 87.5552 69.1816 87.5119 68.8216 87.4252C68.4616 87.3385 68.1316 87.2085 67.8316 87.0352C67.6782 86.9485 67.5716 86.8419 67.5116 86.7152C67.4582 86.5885 67.4416 86.4585 67.4616 86.3252C67.4882 86.1919 67.5416 86.0785 67.6216 85.9852C67.7082 85.8852 67.8149 85.8219 67.9416 85.7952C68.0749 85.7685 68.2216 85.7985 68.3816 85.8852C68.6149 86.0052 68.8516 86.0985 69.0916 86.1652C69.3382 86.2319 69.5882 86.2652 69.8416 86.2652C70.0949 86.2652 70.3116 86.2219 70.4916 86.1352C70.6716 86.0485 70.8082 85.9285 70.9016 85.7752C70.9949 85.6219 71.0416 85.4419 71.0416 85.2352C71.0416 84.9152 70.9382 84.6585 70.7316 84.4652C70.5316 84.2719 70.2582 84.1752 69.9116 84.1752C69.7382 84.1752 69.5616 84.2052 69.3816 84.2652C69.2082 84.3185 69.0282 84.4152 68.8416 84.5552C68.7749 84.6085 68.6882 84.6585 68.5816 84.7052C68.4749 84.7519 68.3616 84.7752 68.2416 84.7752C68.0349 84.7752 67.8816 84.7285 67.7816 84.6352C67.6816 84.5352 67.6316 84.3919 67.6316 84.2052V81.0652C67.6316 80.8452 67.6882 80.6785 67.8016 80.5652C67.9216 80.4519 68.0882 80.3952 68.3016 80.3952H71.5116C71.7316 80.3952 71.8982 80.4519 72.0116 80.5652C72.1249 80.6719 72.1816 80.8285 72.1816 81.0352C72.1816 81.2352 72.1249 81.3919 72.0116 81.5052C71.8982 81.6119 71.7316 81.6652 71.5116 81.6652H69.1216V83.5752H68.7416C68.9082 83.3685 69.1282 83.2085 69.4016 83.0952C69.6749 82.9819 69.9749 82.9252 70.3016 82.9252C70.7482 82.9252 71.1382 83.0219 71.4716 83.2152C71.8049 83.4019 72.0649 83.6652 72.2516 84.0052C72.4382 84.3452 72.5316 84.7385 72.5316 85.1852C72.5316 85.6519 72.4249 86.0652 72.2116 86.4252C71.9982 86.7785 71.6916 87.0552 71.2916 87.2552C70.8916 87.4552 70.4182 87.5552 69.8716 87.5552Z"></path>
<path fill="#A7ADEC" d="M50.7644 103.529C50.6841 103.579 50.4531 103.82 50.2623 104.066C49.5192 105 49.1126 105.718 48.9619 106.356C48.8666 106.768 48.8666 107.646 48.9619 108.028C49.1527 108.781 49.71 109.549 50.3527 109.946L50.6539 110.131L50.6188 110.433C50.5987 110.603 50.5736 110.749 50.5686 110.754C50.5585 110.764 50.4129 110.679 50.2422 110.563C49.8054 110.267 49.2833 110.031 48.7912 109.905C48.1737 109.75 47.8825 109.815 47.6214 110.167C47.4808 110.352 47.4156 111.06 47.4457 112.12C47.4708 113.149 47.516 113.365 47.8725 114.053C48.1486 114.585 48.7862 115.202 49.3385 115.478C49.8305 115.719 50.4531 115.855 50.92 115.825L51.2263 115.805L51.3468 116.081C51.4171 116.232 51.4773 116.367 51.4823 116.382C51.4924 116.397 51.2213 116.412 50.8799 116.417C50.2021 116.417 49.8205 116.498 49.3034 116.739C48.8866 116.929 48.7712 117.105 48.8013 117.517C48.8163 117.763 48.8666 117.898 49.0624 118.245C49.951 119.836 50.6188 120.499 51.6731 120.836C52.6572 121.157 53.6965 121.011 54.5199 120.449C54.7558 120.288 54.8462 120.253 54.9065 120.288C54.9768 120.333 54.9868 120.64 55.0019 122.949L55.0119 125.565L54.5249 125.585C53.9626 125.61 53.7718 125.686 53.6111 125.942C53.5358 126.062 53.5057 126.198 53.5057 126.398C53.5057 126.66 53.5208 126.7 53.7015 126.896L53.9023 127.106H60.2837H66.665L66.8658 126.896C67.0466 126.7 67.0616 126.66 67.0616 126.398C67.0616 126.198 67.0315 126.062 66.9562 125.942C66.7955 125.686 66.6047 125.61 66.0424 125.585L65.5554 125.565L65.5654 122.949C65.5805 119.967 65.5604 120.098 65.9771 120.394C67.3378 121.373 69.2205 121.157 70.4155 119.877C70.9878 119.269 71.8313 117.858 71.8313 117.512C71.8313 117.291 71.7259 117.045 71.5702 116.904C71.264 116.618 70.2297 116.362 69.5117 116.397C69.2958 116.407 69.1201 116.407 69.1201 116.402C69.1201 116.397 69.1753 116.262 69.2456 116.101L69.3711 115.81L69.6674 115.825C70.1293 115.855 70.7418 115.714 71.2288 115.478C71.5752 115.308 71.7409 115.182 72.0924 114.831C72.4539 114.469 72.5643 114.314 72.7551 113.917C73.0714 113.269 73.1367 112.928 73.1367 111.894C73.1317 110.89 73.0714 110.337 72.9459 110.167C72.8003 109.971 72.6145 109.855 72.3986 109.825C71.9669 109.77 70.8924 110.156 70.3 110.583C70.0188 110.784 70.0038 110.774 69.9535 110.387L69.9184 110.136L70.1996 109.971C71.5853 109.147 72.1024 107.295 71.3945 105.693C71.2439 105.352 70.6313 104.428 70.2498 103.971C69.8933 103.544 69.7226 103.434 69.3962 103.434C69.0749 103.434 68.8641 103.569 68.4925 104.021C67.8398 104.814 67.5135 105.809 67.5135 107.014C67.5135 107.721 67.6139 108.208 67.88 108.831C68.8389 111.075 68.7586 113.545 67.6641 115.745C67.0215 117.035 66.1227 118.054 64.8876 118.903C64.6467 119.073 64.3956 119.284 64.3354 119.38L64.2249 119.55H62.6333H61.0368V118.069C61.0368 117.256 61.0518 116.588 61.0769 116.588C61.097 116.588 61.6995 116.899 62.4175 117.271C63.8534 118.024 64.0542 118.089 64.4006 117.908C64.6266 117.793 64.8023 117.527 64.8023 117.296C64.8023 117.196 64.6617 116.262 64.491 115.222L64.1797 113.335L65.5705 111.964C66.3386 111.216 66.9963 110.538 67.0365 110.458C67.0767 110.382 67.1118 110.212 67.1118 110.086C67.1118 109.644 66.8859 109.403 66.3838 109.313C66.2181 109.283 65.3295 109.147 64.4057 109.007C63.4818 108.866 62.7187 108.751 62.7137 108.741C62.7087 108.736 62.302 107.847 61.82 106.773C61.2527 105.517 60.8912 104.774 60.8108 104.704C60.5246 104.453 60.0376 104.453 59.7565 104.704C59.6761 104.774 59.3096 105.527 58.7473 106.773C58.2603 107.847 57.8587 108.736 57.8536 108.741C57.8436 108.751 56.9549 108.891 55.8704 109.057C53.7567 109.378 53.6965 109.393 53.5308 109.71C53.4354 109.895 53.4354 110.277 53.5308 110.458C53.571 110.538 54.2287 111.216 54.9968 111.964L56.3876 113.335L56.0763 115.222C55.9056 116.262 55.765 117.196 55.765 117.296C55.765 117.527 55.9407 117.793 56.1667 117.908C56.5131 118.089 56.7189 118.024 58.0996 117.301C58.7925 116.939 59.395 116.628 59.4452 116.608C59.5255 116.578 59.5305 116.678 59.5305 118.064V119.55H57.939H56.3424L56.2018 119.375C56.1265 119.279 55.8102 119.008 55.4989 118.777C54.3391 117.908 53.5609 117 52.9584 115.8C52.4965 114.891 52.2204 113.967 52.0949 112.953C52.0145 112.285 52.0647 111.09 52.2003 110.443C52.3007 109.976 52.3861 109.705 52.8229 108.48C53.2496 107.28 53.1643 106.034 52.5769 104.814C52.3007 104.237 51.8438 103.66 51.5426 103.509C51.3418 103.404 50.9552 103.414 50.7644 103.529ZM51.4221 106.14C51.6028 106.848 51.5677 107.39 51.2865 108.128C51.2012 108.349 51.1259 108.54 51.1108 108.55C51.0706 108.6 50.7292 108.213 50.6037 107.978C50.4832 107.752 50.4682 107.671 50.4682 107.199C50.4682 106.607 50.5435 106.391 50.9552 105.773L51.166 105.452L51.2564 105.653C51.3066 105.763 51.3819 105.984 51.4221 106.14ZM69.6874 105.864C70.1243 106.537 70.2447 107.044 70.1042 107.606C70.0188 107.937 69.7527 108.379 69.577 108.49C69.4565 108.565 69.4716 108.58 69.2808 108.098C68.9795 107.34 68.9845 106.481 69.3059 105.683C69.346 105.578 69.3962 105.492 69.4163 105.492C69.4314 105.492 69.5569 105.663 69.6874 105.864ZM60.9062 108.565C61.2326 109.293 61.5388 109.926 61.584 109.981C61.6292 110.031 61.7246 110.101 61.7999 110.141C61.9053 110.197 64.3956 110.613 64.6215 110.613C64.6517 110.613 64.2199 111.07 63.6626 111.628C62.8543 112.446 62.6434 112.687 62.5982 112.843C62.558 113.003 62.5831 113.264 62.7739 114.394C62.8944 115.137 62.9898 115.755 62.9798 115.765C62.9697 115.775 62.4124 115.499 61.7346 115.147C60.6954 114.605 60.4744 114.509 60.2837 114.509C60.0929 114.509 59.872 114.605 58.8327 115.147C58.1549 115.499 57.5976 115.775 57.5875 115.765C57.5775 115.755 57.6729 115.137 57.7934 114.394C57.9842 113.264 58.0093 113.003 57.9691 112.843C57.9239 112.687 57.713 112.446 56.9047 111.628C56.3474 111.07 55.9156 110.613 55.9458 110.613C55.9759 110.613 56.5884 110.523 57.3114 110.413C58.6067 110.217 58.8226 110.162 58.9833 109.981C59.0285 109.926 59.3347 109.293 59.6611 108.565C59.9874 107.842 60.2686 107.249 60.2837 107.249C60.2987 107.249 60.5799 107.842 60.9062 108.565ZM49.2933 111.823C49.4239 111.909 49.6799 112.13 49.8556 112.315C50.3276 112.817 50.5334 113.224 50.664 113.917L50.7292 114.289L50.5485 114.253C50.2272 114.198 49.7552 113.937 49.5343 113.686C49.4188 113.556 49.2531 113.304 49.1678 113.124C49.0322 112.833 49.0122 112.737 48.9971 112.23C48.9871 111.924 48.9921 111.668 49.0172 111.668C49.0373 111.668 49.1628 111.738 49.2933 111.823ZM71.5702 112.23C71.5552 112.742 71.5351 112.833 71.3945 113.134C71.1886 113.576 70.8874 113.892 70.5058 114.073C70.1293 114.258 69.8732 114.314 69.8732 114.218C69.8732 114.183 69.9184 113.952 69.9736 113.711C70.0891 113.184 70.31 112.752 70.6514 112.381C70.9025 112.1 71.4447 111.668 71.5401 111.668C71.5702 111.668 71.5853 111.879 71.5702 112.23ZM51.9794 118.114C52.4664 118.27 52.8781 118.531 53.2697 118.938L53.5659 119.239L53.3199 119.329C52.9434 119.475 52.3509 119.46 51.9995 119.294C51.5627 119.088 51.166 118.697 50.7744 118.074L50.679 117.929L51.1259 117.959C51.392 117.974 51.7384 118.039 51.9794 118.114ZM69.818 118.054C69.331 118.978 68.5628 119.495 67.7695 119.44C67.4633 119.415 67.0616 119.279 67.0616 119.194C67.0616 119.179 67.2173 119.013 67.4131 118.832C67.9804 118.295 68.8088 117.959 69.587 117.949C69.8732 117.944 69.8782 117.944 69.818 118.054ZM64.0492 123.341V125.575H60.2837H56.5181V123.341V121.107H60.2837H64.0492V123.341Z"></path>
<path fill="#A7ADEC" d="M58.5014 122.638C58.3909 122.678 58.2955 122.713 58.2905 122.713C58.2855 122.713 58.2202 122.799 58.1499 122.899C58.0495 123.05 58.0244 123.15 58.0244 123.381C58.0244 123.647 58.0395 123.687 58.2202 123.883L58.4211 124.094H60.2837H62.1464L62.3472 123.883C62.528 123.687 62.5431 123.647 62.5431 123.386C62.5431 123.05 62.4175 122.809 62.1765 122.673C62.036 122.598 61.8201 122.588 60.359 122.578C59.0085 122.568 58.6671 122.578 58.5014 122.638Z"></path>
</svg>
